<svg id="Layer_1" data-name="Layer 1" xmlns="http://www.w3.org/2000/svg" xmlns:xlink="http://www.w3.org/1999/xlink" viewBox="0 0 296.15 350"><defs><style>.cls-1{fill-rule:evenodd;fill:url(#linear-gradient);}</style><linearGradient id="linear-gradient" x1="101.92" y1="250" x2="398.08" y2="250" gradientUnits="userSpaceOnUse"><stop offset="0" stop-color="#02b579"/><stop offset="1" stop-color="#00dd8d"/></linearGradient></defs><title>supplier</title><path class="cls-1" d="M339.74,75a58.37,58.37,0,0,0-57.42,68.64l-84.91,59.43c-.43.31-.84.63-1.23,1a58.33,58.33,0,1,0,0,91.92c.39.34.8.66,1.23,1l84.91,59.43a58.36,58.36,0,1,0,11.07-25.11L213,275A58.47,58.47,0,0,0,213,225l80.4-56.28A58.34,58.34,0,1,0,339.74,75Zm-31.41,58.33a31.41,31.41,0,1,1,31.41,31.41A31.42,31.42,0,0,1,308.33,133.33ZM160.26,218.59A31.41,31.41,0,1,0,191.67,250,31.41,31.41,0,0,0,160.26,218.59ZM339.74,335.26a31.41,31.41,0,1,0,31.41,31.41A31.41,31.41,0,0,0,339.74,335.26Z" transform="translate(-101.92 -75)"/></svg>