<svg id="Layer_1" data-name="Layer 1" xmlns="http://www.w3.org/2000/svg" xmlns:xlink="http://www.w3.org/1999/xlink" viewBox="0 0 317.44 350"><defs><style>.cls-1,.cls-3{fill-rule:evenodd;}.cls-1{fill:url(#linear-gradient);}.cls-2{fill:url(#linear-gradient-2);}.cls-3{fill:url(#linear-gradient-3);}</style><linearGradient id="linear-gradient" x1="156.4" y1="152.33" x2="311.05" y2="152.33" gradientUnits="userSpaceOnUse"><stop offset="0" stop-color="#02b579"/><stop offset="1" stop-color="#00dd8d"/></linearGradient><linearGradient id="linear-gradient-2" x1="297.48" y1="316.02" x2="365.31" y2="316.02" xlink:href="#linear-gradient"/><linearGradient id="linear-gradient-3" x1="91.28" y1="331.4" x2="408.72" y2="331.4" xlink:href="#linear-gradient"/></defs><title>team_prev</title><path class="cls-1" d="M233.72,75a77.33,77.33,0,1,0,77.33,77.33A77.33,77.33,0,0,0,233.72,75Zm-52.9,77.33a52.91,52.91,0,1,1,52.9,52.9A52.9,52.9,0,0,1,180.82,152.33Z" transform="translate(-91.28 -75)"/><path class="cls-2" d="M361.6,291.88a12.21,12.21,0,0,1,.26,17.27L332,339.9a12.2,12.2,0,0,1-18.14-.69l-13.57-16.28a12.21,12.21,0,0,1,18.76-15.63l4.88,5.85,20.39-21A12.21,12.21,0,0,1,361.6,291.88Z" transform="translate(-91.28 -75)"/><path class="cls-3" d="M278.89,258.35a235.87,235.87,0,0,0-45.17-4.28c-37.66,0-72.36,8.56-98.07,23-25.33,14.25-44.37,35.85-44.37,62.44v1.67c0,18.91,0,42.65,20.78,59.6,10.25,8.35,24.58,14.28,43.95,18.2s44.73,6,77.71,6c46.69,0,78.3-4.13,99.62-12.07,19.19-7.14,30.57-17.61,36.64-30.79a77.33,77.33,0,1,0-91.09-123.79Zm-.4,56.77A52.91,52.91,0,1,1,331.4,368,52.91,52.91,0,0,1,278.49,315.12ZM262.3,280.36a77.37,77.37,0,0,0,57.88,111.27c-17.43,5.48-44.49,8.95-86.46,8.95-32.14,0-55.66-2-72.87-5.51s-27.34-8.29-33.37-13.2c-11.12-9.06-11.78-21.05-11.78-42.34,0-13.85,10.11-28.89,31.92-41.15,21.42-12.05,51.84-19.89,86.1-19.89A216.32,216.32,0,0,1,262.3,280.36Z" transform="translate(-91.28 -75)"/></svg>