<svg id="Layer_1" data-name="Layer 1" xmlns="http://www.w3.org/2000/svg" xmlns:xlink="http://www.w3.org/1999/xlink" viewBox="0 0 317.44 350"><defs><style>.cls-1{fill-rule:evenodd;fill:url(#linear-gradient);}</style><linearGradient id="linear-gradient" x1="91.28" y1="250" x2="408.72" y2="250" gradientUnits="userSpaceOnUse"><stop offset="0" stop-color="#02b579"/><stop offset="1" stop-color="#00dd8d"/></linearGradient></defs><title>reports</title><path class="cls-1" d="M232.8,75h34.4c29.91,0,53.61,0,72.16,2.49,19.08,2.57,34.53,8,46.71,20.16s17.59,27.63,20.16,46.71c2.49,18.55,2.49,42.25,2.49,72.16v67c0,29.91,0,53.61-2.49,72.15-2.57,19.09-8,34.54-20.16,46.72s-27.63,17.59-46.71,20.16C320.81,425,297.11,425,267.2,425H232.8c-29.91,0-53.61,0-72.16-2.49-19.08-2.57-34.53-8-46.71-20.16s-17.59-27.63-20.16-46.72c-2.49-18.54-2.49-42.24-2.49-72.15v-67c0-29.91,0-53.61,2.49-72.16,2.57-19.08,8-34.53,20.16-46.71s27.63-17.59,46.71-20.16C179.19,75,202.89,75,232.8,75Zm-68.9,26.69c-16.38,2.21-25.82,6.34-32.71,13.22s-11,16.33-13.22,32.71c-2.25,16.73-2.27,38.78-2.27,69.82v65.12c0,31,0,53.09,2.27,69.82,2.2,16.38,6.33,25.82,13.22,32.71s16.33,11,32.71,13.22c16.73,2.25,38.78,2.27,69.82,2.27h32.56c31,0,53.09,0,69.82-2.27,16.38-2.21,25.82-6.34,32.71-13.22s11-16.33,13.22-32.71c2.25-16.73,2.27-38.78,2.27-69.82V217.44c0-31,0-53.09-2.27-69.82-2.2-16.38-6.33-25.82-13.22-32.71s-16.33-11-32.71-13.22c-16.73-2.25-38.78-2.27-69.82-2.27H233.72C202.68,99.42,180.63,99.44,163.9,101.69Zm8.77,83.19a12.21,12.21,0,0,1,12.21-12.21H315.12a12.21,12.21,0,0,1,0,24.42H184.88A12.21,12.21,0,0,1,172.67,184.88Zm0,65.12a12.21,12.21,0,0,1,12.21-12.21H315.12a12.21,12.21,0,0,1,0,24.42H184.88A12.21,12.21,0,0,1,172.67,250Zm0,65.12a12.21,12.21,0,0,1,12.21-12.21h81.4a12.21,12.21,0,1,1,0,24.42h-81.4A12.21,12.21,0,0,1,172.67,315.12Z" transform="translate(-91.28 -75)"/></svg>