<svg id="Layer_1" data-name="Layer 1" xmlns="http://www.w3.org/2000/svg" xmlns:xlink="http://www.w3.org/1999/xlink" viewBox="0 0 333.72 350"><defs><style>.cls-1{fill-rule:evenodd;fill:url(#linear-gradient);}</style><linearGradient id="linear-gradient" x1="83.14" y1="250" x2="416.86" y2="250" gradientUnits="userSpaceOnUse"><stop offset="0" stop-color="#02b579"/><stop offset="1" stop-color="#00dd8d"/></linearGradient></defs><title>rfq_list</title><path class="cls-1" d="M224.66,75h34.4c29.92,0,53.61,0,72.16,2.49,19.08,2.57,34.53,8,46.71,20.16a12.2,12.2,0,0,1-17.26,17.26c-6.89-6.88-16.33-11-32.71-13.22-16.73-2.25-38.78-2.27-69.82-2.27H225.58c-31,0-53.09,0-69.82,2.27-16.38,2.21-25.82,6.34-32.71,13.22s-11,16.33-13.22,32.71c-2.25,16.73-2.27,38.78-2.27,69.82v65.12c0,31,0,53.09,2.27,69.82,2.21,16.38,6.33,25.82,13.22,32.71s16.33,11,32.71,13.22c16.73,2.25,38.78,2.27,69.82,2.27h32.56c31,0,53.09,0,69.82-2.27,16.38-2.21,25.82-6.34,32.71-13.22C372,373.76,375.43,356.15,376,314.94a12.21,12.21,0,0,1,24.42.35c-.57,39.52-3.13,67.69-22.51,87.06-12.18,12.18-27.63,17.59-46.71,20.16C312.67,425,289,425,259.06,425h-34.4c-29.91,0-53.61,0-72.16-2.49-19.08-2.57-34.53-8-46.71-20.16S88.2,374.72,85.63,355.63c-2.49-18.54-2.49-42.24-2.49-72.15v-67c0-29.91,0-53.61,2.49-72.16,2.57-19.08,8-34.53,20.16-46.71s27.63-17.59,46.71-20.16C171.05,75,194.75,75,224.66,75Zm116.72,94.35a44.22,44.22,0,0,1,62.53,62.53L326.5,309.29a113.63,113.63,0,0,1-10.26,9.55,65.32,65.32,0,0,1-12.11,7.49,114.13,114.13,0,0,1-13.13,4.9l-33.92,11.31a20.85,20.85,0,0,1-26.36-26.37l11.08-33.23c.08-.23.15-.46.23-.69a115,115,0,0,1,4.89-13.13A66,66,0,0,1,254.41,257,115.06,115.06,0,0,1,264,246.76l.51-.51Zm45.26,17.26a19.8,19.8,0,0,0-28,0l-3,3c.16.55.35,1.13.56,1.74A42.28,42.28,0,0,0,382,217c.61.21,1.19.39,1.73.55l3-3A19.8,19.8,0,0,0,386.64,186.61ZM365,236.22a67.18,67.18,0,0,1-28-28l-55.29,55.3c-4.9,4.9-6.62,6.65-8.07,8.51a40.43,40.43,0,0,0-4.7,7.6c-1,2.13-1.81,4.45-4,11l-6.52,19.55,4.6,4.6,19.55-6.52c6.57-2.19,8.89-3,11-4a41.36,41.36,0,0,0,7.61-4.7c1.86-1.45,3.61-3.17,8.51-8.07Zm-200.5-35.06A12.21,12.21,0,0,1,176.74,189H282.56a12.21,12.21,0,0,1,0,24.42H176.74A12.21,12.21,0,0,1,164.53,201.16Zm0,65.12a12.21,12.21,0,0,1,12.21-12.21h40.7a12.21,12.21,0,0,1,0,24.42h-40.7A12.21,12.21,0,0,1,164.53,266.28Zm0,65.12a12.21,12.21,0,0,1,12.21-12.21h24.42a12.21,12.21,0,1,1,0,24.41H176.74A12.21,12.21,0,0,1,164.53,331.4Z" transform="translate(-83.14 -75)"/></svg>